<svg width="11" height="11" viewBox="0 0 11 11" fill="none" xmlns="http://www.w3.org/2000/svg">
<path d="M7.91943 0H3.01842C1.35407 0 0 1.28365 0 2.86137V7.50728C0 9.08507 1.35407 10.3687 3.01842 10.3687H7.91943C9.58392 10.3687 10.938 9.08501 10.938 7.50728V2.86137C10.9381 1.28365 9.58392 0 7.91943 0ZM9.96758 7.50728C9.96758 8.5778 9.0488 9.4487 7.9195 9.4487H3.01842C1.88918 9.44876 0.970471 8.5778 0.970471 7.50728V2.86137C0.970471 1.79091 1.88918 0.919957 3.01842 0.919957H7.91943C9.04874 0.919957 9.96752 1.79091 9.96752 2.86137V7.50728H9.96758Z" fill="white"/>
</svg>
