<svg width="13" height="10" viewBox="0 0 13 10" fill="none" xmlns="http://www.w3.org/2000/svg">
<path d="M10.7762 0H1.84945C0.829665 0 0 0.786491 0 1.75321V7.36349C0 8.33021 0.829665 9.1167 1.84945 9.1167H10.7762C11.7959 9.1167 12.6256 8.33021 12.6256 7.36349V1.75321C12.6256 0.786491 11.7959 0 10.7762 0ZM11.8858 7.36349C11.8858 7.94352 11.388 8.41541 10.7762 8.41541H1.84945C1.23758 8.41541 0.739782 7.94352 0.739782 7.36349V1.75321C0.739782 1.17318 1.23758 0.701285 1.84945 0.701285H10.7762C11.388 0.701285 11.8858 1.17318 11.8858 1.75321V7.36349Z" fill="white"/>
</svg>
