<svg width="13" height="13" viewBox="0 0 13 13" fill="none" xmlns="http://www.w3.org/2000/svg">
<path d="M10.7783 0.372314H2.29395C1.32477 0.372314 0.536133 1.16095 0.536133 2.13013V10.6145C0.536133 11.5837 1.32477 12.3723 2.29395 12.3723H10.7783C11.7475 12.3723 12.5361 11.5837 12.5361 10.6145V2.13013C12.5361 1.16095 11.7475 0.372314 10.7783 0.372314ZM6.55957 9.51294C4.81485 9.51294 3.39551 8.0936 3.39551 6.34888C3.39551 4.60416 4.81485 3.18481 6.55957 3.18481C8.30429 3.18481 9.72363 4.60416 9.72363 6.34888C9.72363 8.0936 8.30429 9.51294 6.55957 9.51294ZM10.0752 3.88794C9.49365 3.88794 9.02051 3.41479 9.02051 2.83325C9.02051 2.25171 9.49365 1.77856 10.0752 1.77856C10.6567 1.77856 11.1299 2.25171 11.1299 2.83325C11.1299 3.41479 10.6567 3.88794 10.0752 3.88794Z" fill="#0096FF"/>
</svg>
